<svg width="28" height="28" viewBox="0 0 28 28" fill="none" xmlns="http://www.w3.org/2000/svg">
<path d="M4.42642 14.035C5.05292 10.899 5.36676 9.33333 6.40159 8.323C6.59284 8.13685 6.79971 7.96745 7.01992 7.81667C8.21342 7 9.81176 7 13.0084 7H14.9953C18.1908 7 19.7879 7 20.9803 7.81667C21.2019 7.96911 21.408 8.13828 21.5986 8.32417C22.6334 9.33333 22.9484 10.9002 23.5749 14.035C24.4744 18.5337 24.9248 20.783 23.8888 22.3767C23.7013 22.6668 23.4835 22.9324 23.2354 23.1735C21.8751 24.5 19.5826 24.5 14.9953 24.5H13.0084C8.41992 24.5 6.12626 24.5 4.76592 23.1723C4.51981 22.9316 4.30109 22.6644 4.11376 22.3755C3.07776 20.7818 3.52809 18.5325 4.42876 14.0338L4.42642 14.035Z" stroke="black" stroke-width="1.5"/>
<path d="M10.5 6.99992V5.83325C10.5 4.90499 10.8687 4.01476 11.5251 3.35838C12.1815 2.702 13.0717 2.33325 14 2.33325C14.9283 2.33325 15.8185 2.702 16.4749 3.35838C17.1313 4.01476 17.5 4.90499 17.5 5.83325V6.99992M10.6983 17.4999C10.9394 18.183 11.3864 18.7746 11.9777 19.193C12.569 19.6114 13.2756 19.8361 14 19.8361C14.7244 19.8361 15.431 19.6114 16.0223 19.193C16.6136 18.7746 17.0606 18.183 17.3017 17.4999" stroke="black" stroke-width="1.5" stroke-linecap="round"/>
</svg>
